<svg xmlns="http://www.w3.org/2000/svg" viewBox="0 0 512 512">
<rect width="512" height="512" rx="112" fill="#e0f2fe"/>
<rect x="176" y="41" width="20" height="20" fill="#7f1d1d"/>
<rect x="196" y="41" width="20" height="20" fill="#7f1d1d"/>
<rect x="296" y="41" width="20" height="20" fill="#7f1d1d"/>
<rect x="316" y="41" width="20" height="20" fill="#7f1d1d"/>
<rect x="156" y="61" width="20" height="20" fill="#7f1d1d"/>
<rect x="176" y="61" width="20" height="20" fill="#fde047"/>
<rect x="196" y="61" width="20" height="20" fill="#fde047"/>
<rect x="216" y="61" width="20" height="20" fill="#7f1d1d"/>
<rect x="276" y="61" width="20" height="20" fill="#7f1d1d"/>
<rect x="296" y="61" width="20" height="20" fill="#fde047"/>
<rect x="316" y="61" width="20" height="20" fill="#fde047"/>
<rect x="336" y="61" width="20" height="20" fill="#7f1d1d"/>
<rect x="156" y="81" width="20" height="20" fill="#7f1d1d"/>
<rect x="176" y="81" width="20" height="20" fill="#facc15"/>
<rect x="196" y="81" width="20" height="20" fill="#facc15"/>
<rect x="216" y="81" width="20" height="20" fill="#7f1d1d"/>
<rect x="276" y="81" width="20" height="20" fill="#7f1d1d"/>
<rect x="296" y="81" width="20" height="20" fill="#facc15"/>
<rect x="316" y="81" width="20" height="20" fill="#facc15"/>
<rect x="336" y="81" width="20" height="20" fill="#7f1d1d"/>
<rect x="156" y="101" width="20" height="20" fill="#7f1d1d"/>
<rect x="176" y="101" width="20" height="20" fill="#facc15"/>
<rect x="196" y="101" width="20" height="20" fill="#facc15"/>
<rect x="216" y="101" width="20" height="20" fill="#7f1d1d"/>
<rect x="236" y="101" width="20" height="20" fill="#7f1d1d"/>
<rect x="256" y="101" width="20" height="20" fill="#7f1d1d"/>
<rect x="276" y="101" width="20" height="20" fill="#7f1d1d"/>
<rect x="296" y="101" width="20" height="20" fill="#facc15"/>
<rect x="316" y="101" width="20" height="20" fill="#facc15"/>
<rect x="336" y="101" width="20" height="20" fill="#7f1d1d"/>
<rect x="136" y="121" width="20" height="20" fill="#7f1d1d"/>
<rect x="156" y="121" width="20" height="20" fill="#f87171"/>
<rect x="176" y="121" width="20" height="20" fill="#f87171"/>
<rect x="196" y="121" width="20" height="20" fill="#f87171"/>
<rect x="216" y="121" width="20" height="20" fill="#f87171"/>
<rect x="236" y="121" width="20" height="20" fill="#f87171"/>
<rect x="256" y="121" width="20" height="20" fill="#f87171"/>
<rect x="276" y="121" width="20" height="20" fill="#f87171"/>
<rect x="296" y="121" width="20" height="20" fill="#f87171"/>
<rect x="316" y="121" width="20" height="20" fill="#f87171"/>
<rect x="336" y="121" width="20" height="20" fill="#7f1d1d"/>
<rect x="116" y="141" width="20" height="20" fill="#7f1d1d"/>
<rect x="136" y="141" width="20" height="20" fill="#f87171"/>
<rect x="156" y="141" width="20" height="20" fill="#f87171"/>
<rect x="176" y="141" width="20" height="20" fill="#f87171"/>
<rect x="196" y="141" width="20" height="20" fill="#f87171"/>
<rect x="216" y="141" width="20" height="20" fill="#f87171"/>
<rect x="236" y="141" width="20" height="20" fill="#f87171"/>
<rect x="256" y="141" width="20" height="20" fill="#f87171"/>
<rect x="276" y="141" width="20" height="20" fill="#f87171"/>
<rect x="296" y="141" width="20" height="20" fill="#f87171"/>
<rect x="316" y="141" width="20" height="20" fill="#f87171"/>
<rect x="336" y="141" width="20" height="20" fill="#f87171"/>
<rect x="356" y="141" width="20" height="20" fill="#7f1d1d"/>
<rect x="116" y="161" width="20" height="20" fill="#7f1d1d"/>
<rect x="136" y="161" width="20" height="20" fill="#f87171"/>
<rect x="156" y="161" width="20" height="20" fill="#000"/>
<rect x="176" y="161" width="20" height="20" fill="#fff"/>
<rect x="196" y="161" width="20" height="20" fill="#f87171"/>
<rect x="216" y="161" width="20" height="20" fill="#f87171"/>
<rect x="236" y="161" width="20" height="20" fill="#f87171"/>
<rect x="256" y="161" width="20" height="20" fill="#f87171"/>
<rect x="276" y="161" width="20" height="20" fill="#000"/>
<rect x="296" y="161" width="20" height="20" fill="#fff"/>
<rect x="316" y="161" width="20" height="20" fill="#f87171"/>
<rect x="336" y="161" width="20" height="20" fill="#f87171"/>
<rect x="356" y="161" width="20" height="20" fill="#7f1d1d"/>
<rect x="116" y="181" width="20" height="20" fill="#7f1d1d"/>
<rect x="136" y="181" width="20" height="20" fill="#f87171"/>
<rect x="156" y="181" width="20" height="20" fill="#000"/>
<rect x="176" y="181" width="20" height="20" fill="#000"/>
<rect x="196" y="181" width="20" height="20" fill="#f87171"/>
<rect x="216" y="181" width="20" height="20" fill="#f87171"/>
<rect x="236" y="181" width="20" height="20" fill="#f87171"/>
<rect x="256" y="181" width="20" height="20" fill="#f87171"/>
<rect x="276" y="181" width="20" height="20" fill="#000"/>
<rect x="296" y="181" width="20" height="20" fill="#000"/>
<rect x="316" y="181" width="20" height="20" fill="#f87171"/>
<rect x="336" y="181" width="20" height="20" fill="#f87171"/>
<rect x="356" y="181" width="20" height="20" fill="#7f1d1d"/>
<rect x="116" y="201" width="20" height="20" fill="#7f1d1d"/>
<rect x="136" y="201" width="20" height="20" fill="#f87171"/>
<rect x="156" y="201" width="20" height="20" fill="#f87171"/>
<rect x="176" y="201" width="20" height="20" fill="#f87171"/>
<rect x="196" y="201" width="20" height="20" fill="#f87171"/>
<rect x="216" y="201" width="20" height="20" fill="#f87171"/>
<rect x="236" y="201" width="20" height="20" fill="#f87171"/>
<rect x="256" y="201" width="20" height="20" fill="#f87171"/>
<rect x="276" y="201" width="20" height="20" fill="#f87171"/>
<rect x="296" y="201" width="20" height="20" fill="#f87171"/>
<rect x="316" y="201" width="20" height="20" fill="#f87171"/>
<rect x="336" y="201" width="20" height="20" fill="#f87171"/>
<rect x="356" y="201" width="20" height="20" fill="#7f1d1d"/>
<rect x="116" y="221" width="20" height="20" fill="#7f1d1d"/>
<rect x="136" y="221" width="20" height="20" fill="#f87171"/>
<rect x="156" y="221" width="20" height="20" fill="#f87171"/>
<rect x="176" y="221" width="20" height="20" fill="#dc2626"/>
<rect x="196" y="221" width="20" height="20" fill="#dc2626"/>
<rect x="216" y="221" width="20" height="20" fill="#dc2626"/>
<rect x="236" y="221" width="20" height="20" fill="#dc2626"/>
<rect x="256" y="221" width="20" height="20" fill="#dc2626"/>
<rect x="276" y="221" width="20" height="20" fill="#dc2626"/>
<rect x="296" y="221" width="20" height="20" fill="#f87171"/>
<rect x="316" y="221" width="20" height="20" fill="#f87171"/>
<rect x="336" y="221" width="20" height="20" fill="#f87171"/>
<rect x="356" y="221" width="20" height="20" fill="#7f1d1d"/>
<rect x="116" y="241" width="20" height="20" fill="#7f1d1d"/>
<rect x="136" y="241" width="20" height="20" fill="#f87171"/>
<rect x="156" y="241" width="20" height="20" fill="#f87171"/>
<rect x="176" y="241" width="20" height="20" fill="#f87171"/>
<rect x="196" y="241" width="20" height="20" fill="#fde047"/>
<rect x="216" y="241" width="20" height="20" fill="#fde047"/>
<rect x="236" y="241" width="20" height="20" fill="#fde047"/>
<rect x="256" y="241" width="20" height="20" fill="#fde047"/>
<rect x="276" y="241" width="20" height="20" fill="#f87171"/>
<rect x="296" y="241" width="20" height="20" fill="#f87171"/>
<rect x="316" y="241" width="20" height="20" fill="#f87171"/>
<rect x="336" y="241" width="20" height="20" fill="#f87171"/>
<rect x="356" y="241" width="20" height="20" fill="#7f1d1d"/>
<rect x="116" y="261" width="20" height="20" fill="#7f1d1d"/>
<rect x="136" y="261" width="20" height="20" fill="#f87171"/>
<rect x="156" y="261" width="20" height="20" fill="#f87171"/>
<rect x="176" y="261" width="20" height="20" fill="#f87171"/>
<rect x="196" y="261" width="20" height="20" fill="#f87171"/>
<rect x="216" y="261" width="20" height="20" fill="#f87171"/>
<rect x="236" y="261" width="20" height="20" fill="#f87171"/>
<rect x="256" y="261" width="20" height="20" fill="#f87171"/>
<rect x="276" y="261" width="20" height="20" fill="#f87171"/>
<rect x="296" y="261" width="20" height="20" fill="#f87171"/>
<rect x="316" y="261" width="20" height="20" fill="#f87171"/>
<rect x="336" y="261" width="20" height="20" fill="#f87171"/>
<rect x="356" y="261" width="20" height="20" fill="#7f1d1d"/>
<rect x="136" y="281" width="20" height="20" fill="#7f1d1d"/>
<rect x="156" y="281" width="20" height="20" fill="#f87171"/>
<rect x="176" y="281" width="20" height="20" fill="#dc2626"/>
<rect x="196" y="281" width="20" height="20" fill="#dc2626"/>
<rect x="216" y="281" width="20" height="20" fill="#f87171"/>
<rect x="236" y="281" width="20" height="20" fill="#f87171"/>
<rect x="256" y="281" width="20" height="20" fill="#dc2626"/>
<rect x="276" y="281" width="20" height="20" fill="#dc2626"/>
<rect x="296" y="281" width="20" height="20" fill="#f87171"/>
<rect x="316" y="281" width="20" height="20" fill="#7f1d1d"/>
<rect x="156" y="301" width="20" height="20" fill="#7f1d1d"/>
<rect x="176" y="301" width="20" height="20" fill="#7f1d1d"/>
<rect x="196" y="301" width="20" height="20" fill="#7f1d1d"/>
<rect x="216" y="301" width="20" height="20" fill="#7f1d1d"/>
<rect x="236" y="301" width="20" height="20" fill="#7f1d1d"/>
<rect x="256" y="301" width="20" height="20" fill="#7f1d1d"/>
<rect x="276" y="301" width="20" height="20" fill="#7f1d1d"/>
<rect x="296" y="301" width="20" height="20" fill="#7f1d1d"/>
<rect x="316" y="301" width="20" height="20" fill="#7f1d1d"/>
<text x="256" y="431" font-family="Impact, sans-serif" font-size="80" fill="#1e293b" text-anchor="middle" font-weight="bold">To do</text></svg>
