<svg xmlns="http://www.w3.org/2000/svg" viewBox="0 0 512 512">
<defs><linearGradient id="bg" x1="0" y1="0" x2="1" y2="1"><stop offset="0%" stop-color="#e0f2fe"/><stop offset="50%" stop-color="#fae8ff"/><stop offset="100%" stop-color="#fef3c7"/></linearGradient></defs>
<rect width="512" height="512" rx="112" fill="url(#bg)"/>
<rect x="160" y="64" width="24" height="24" fill="#7f1d1d"/>
<rect x="184" y="64" width="24" height="24" fill="#7f1d1d"/>
<rect x="304" y="64" width="24" height="24" fill="#7f1d1d"/>
<rect x="328" y="64" width="24" height="24" fill="#7f1d1d"/>
<rect x="136" y="88" width="24" height="24" fill="#7f1d1d"/>
<rect x="160" y="88" width="24" height="24" fill="#fde047"/>
<rect x="184" y="88" width="24" height="24" fill="#fde047"/>
<rect x="208" y="88" width="24" height="24" fill="#7f1d1d"/>
<rect x="280" y="88" width="24" height="24" fill="#7f1d1d"/>
<rect x="304" y="88" width="24" height="24" fill="#fde047"/>
<rect x="328" y="88" width="24" height="24" fill="#fde047"/>
<rect x="352" y="88" width="24" height="24" fill="#7f1d1d"/>
<rect x="136" y="112" width="24" height="24" fill="#7f1d1d"/>
<rect x="160" y="112" width="24" height="24" fill="#facc15"/>
<rect x="184" y="112" width="24" height="24" fill="#facc15"/>
<rect x="208" y="112" width="24" height="24" fill="#7f1d1d"/>
<rect x="280" y="112" width="24" height="24" fill="#7f1d1d"/>
<rect x="304" y="112" width="24" height="24" fill="#facc15"/>
<rect x="328" y="112" width="24" height="24" fill="#facc15"/>
<rect x="352" y="112" width="24" height="24" fill="#7f1d1d"/>
<rect x="136" y="136" width="24" height="24" fill="#7f1d1d"/>
<rect x="160" y="136" width="24" height="24" fill="#facc15"/>
<rect x="184" y="136" width="24" height="24" fill="#facc15"/>
<rect x="208" y="136" width="24" height="24" fill="#7f1d1d"/>
<rect x="232" y="136" width="24" height="24" fill="#7f1d1d"/>
<rect x="256" y="136" width="24" height="24" fill="#7f1d1d"/>
<rect x="280" y="136" width="24" height="24" fill="#7f1d1d"/>
<rect x="304" y="136" width="24" height="24" fill="#facc15"/>
<rect x="328" y="136" width="24" height="24" fill="#facc15"/>
<rect x="352" y="136" width="24" height="24" fill="#7f1d1d"/>
<rect x="112" y="160" width="24" height="24" fill="#7f1d1d"/>
<rect x="136" y="160" width="24" height="24" fill="#f87171"/>
<rect x="160" y="160" width="24" height="24" fill="#f87171"/>
<rect x="184" y="160" width="24" height="24" fill="#f87171"/>
<rect x="208" y="160" width="24" height="24" fill="#f87171"/>
<rect x="232" y="160" width="24" height="24" fill="#f87171"/>
<rect x="256" y="160" width="24" height="24" fill="#f87171"/>
<rect x="280" y="160" width="24" height="24" fill="#f87171"/>
<rect x="304" y="160" width="24" height="24" fill="#f87171"/>
<rect x="328" y="160" width="24" height="24" fill="#f87171"/>
<rect x="352" y="160" width="24" height="24" fill="#7f1d1d"/>
<rect x="88" y="184" width="24" height="24" fill="#7f1d1d"/>
<rect x="112" y="184" width="24" height="24" fill="#f87171"/>
<rect x="136" y="184" width="24" height="24" fill="#f87171"/>
<rect x="160" y="184" width="24" height="24" fill="#f87171"/>
<rect x="184" y="184" width="24" height="24" fill="#f87171"/>
<rect x="208" y="184" width="24" height="24" fill="#f87171"/>
<rect x="232" y="184" width="24" height="24" fill="#f87171"/>
<rect x="256" y="184" width="24" height="24" fill="#f87171"/>
<rect x="280" y="184" width="24" height="24" fill="#f87171"/>
<rect x="304" y="184" width="24" height="24" fill="#f87171"/>
<rect x="328" y="184" width="24" height="24" fill="#f87171"/>
<rect x="352" y="184" width="24" height="24" fill="#f87171"/>
<rect x="376" y="184" width="24" height="24" fill="#7f1d1d"/>
<rect x="88" y="208" width="24" height="24" fill="#7f1d1d"/>
<rect x="112" y="208" width="24" height="24" fill="#f87171"/>
<rect x="136" y="208" width="24" height="24" fill="#000"/>
<rect x="160" y="208" width="24" height="24" fill="#fff"/>
<rect x="184" y="208" width="24" height="24" fill="#f87171"/>
<rect x="208" y="208" width="24" height="24" fill="#f87171"/>
<rect x="232" y="208" width="24" height="24" fill="#f87171"/>
<rect x="256" y="208" width="24" height="24" fill="#f87171"/>
<rect x="280" y="208" width="24" height="24" fill="#000"/>
<rect x="304" y="208" width="24" height="24" fill="#fff"/>
<rect x="328" y="208" width="24" height="24" fill="#f87171"/>
<rect x="352" y="208" width="24" height="24" fill="#f87171"/>
<rect x="376" y="208" width="24" height="24" fill="#7f1d1d"/>
<rect x="88" y="232" width="24" height="24" fill="#7f1d1d"/>
<rect x="112" y="232" width="24" height="24" fill="#f87171"/>
<rect x="136" y="232" width="24" height="24" fill="#000"/>
<rect x="160" y="232" width="24" height="24" fill="#000"/>
<rect x="184" y="232" width="24" height="24" fill="#f87171"/>
<rect x="208" y="232" width="24" height="24" fill="#f87171"/>
<rect x="232" y="232" width="24" height="24" fill="#f87171"/>
<rect x="256" y="232" width="24" height="24" fill="#f87171"/>
<rect x="280" y="232" width="24" height="24" fill="#000"/>
<rect x="304" y="232" width="24" height="24" fill="#000"/>
<rect x="328" y="232" width="24" height="24" fill="#f87171"/>
<rect x="352" y="232" width="24" height="24" fill="#f87171"/>
<rect x="376" y="232" width="24" height="24" fill="#7f1d1d"/>
<rect x="88" y="256" width="24" height="24" fill="#7f1d1d"/>
<rect x="112" y="256" width="24" height="24" fill="#f87171"/>
<rect x="136" y="256" width="24" height="24" fill="#f87171"/>
<rect x="160" y="256" width="24" height="24" fill="#f87171"/>
<rect x="184" y="256" width="24" height="24" fill="#f87171"/>
<rect x="208" y="256" width="24" height="24" fill="#f87171"/>
<rect x="232" y="256" width="24" height="24" fill="#f87171"/>
<rect x="256" y="256" width="24" height="24" fill="#f87171"/>
<rect x="280" y="256" width="24" height="24" fill="#f87171"/>
<rect x="304" y="256" width="24" height="24" fill="#f87171"/>
<rect x="328" y="256" width="24" height="24" fill="#f87171"/>
<rect x="352" y="256" width="24" height="24" fill="#f87171"/>
<rect x="376" y="256" width="24" height="24" fill="#7f1d1d"/>
<rect x="88" y="280" width="24" height="24" fill="#7f1d1d"/>
<rect x="112" y="280" width="24" height="24" fill="#f87171"/>
<rect x="136" y="280" width="24" height="24" fill="#f87171"/>
<rect x="160" y="280" width="24" height="24" fill="#dc2626"/>
<rect x="184" y="280" width="24" height="24" fill="#dc2626"/>
<rect x="208" y="280" width="24" height="24" fill="#dc2626"/>
<rect x="232" y="280" width="24" height="24" fill="#dc2626"/>
<rect x="256" y="280" width="24" height="24" fill="#dc2626"/>
<rect x="280" y="280" width="24" height="24" fill="#dc2626"/>
<rect x="304" y="280" width="24" height="24" fill="#f87171"/>
<rect x="328" y="280" width="24" height="24" fill="#f87171"/>
<rect x="352" y="280" width="24" height="24" fill="#f87171"/>
<rect x="376" y="280" width="24" height="24" fill="#7f1d1d"/>
<rect x="88" y="304" width="24" height="24" fill="#7f1d1d"/>
<rect x="112" y="304" width="24" height="24" fill="#f87171"/>
<rect x="136" y="304" width="24" height="24" fill="#f87171"/>
<rect x="160" y="304" width="24" height="24" fill="#f87171"/>
<rect x="184" y="304" width="24" height="24" fill="#fde047"/>
<rect x="208" y="304" width="24" height="24" fill="#fde047"/>
<rect x="232" y="304" width="24" height="24" fill="#fde047"/>
<rect x="256" y="304" width="24" height="24" fill="#fde047"/>
<rect x="280" y="304" width="24" height="24" fill="#f87171"/>
<rect x="304" y="304" width="24" height="24" fill="#f87171"/>
<rect x="328" y="304" width="24" height="24" fill="#f87171"/>
<rect x="352" y="304" width="24" height="24" fill="#f87171"/>
<rect x="376" y="304" width="24" height="24" fill="#7f1d1d"/>
<rect x="88" y="328" width="24" height="24" fill="#7f1d1d"/>
<rect x="112" y="328" width="24" height="24" fill="#f87171"/>
<rect x="136" y="328" width="24" height="24" fill="#f87171"/>
<rect x="160" y="328" width="24" height="24" fill="#f87171"/>
<rect x="184" y="328" width="24" height="24" fill="#f87171"/>
<rect x="208" y="328" width="24" height="24" fill="#f87171"/>
<rect x="232" y="328" width="24" height="24" fill="#f87171"/>
<rect x="256" y="328" width="24" height="24" fill="#f87171"/>
<rect x="280" y="328" width="24" height="24" fill="#f87171"/>
<rect x="304" y="328" width="24" height="24" fill="#f87171"/>
<rect x="328" y="328" width="24" height="24" fill="#f87171"/>
<rect x="352" y="328" width="24" height="24" fill="#f87171"/>
<rect x="376" y="328" width="24" height="24" fill="#7f1d1d"/>
<rect x="112" y="352" width="24" height="24" fill="#7f1d1d"/>
<rect x="136" y="352" width="24" height="24" fill="#f87171"/>
<rect x="160" y="352" width="24" height="24" fill="#dc2626"/>
<rect x="184" y="352" width="24" height="24" fill="#dc2626"/>
<rect x="208" y="352" width="24" height="24" fill="#f87171"/>
<rect x="232" y="352" width="24" height="24" fill="#f87171"/>
<rect x="256" y="352" width="24" height="24" fill="#dc2626"/>
<rect x="280" y="352" width="24" height="24" fill="#dc2626"/>
<rect x="304" y="352" width="24" height="24" fill="#f87171"/>
<rect x="328" y="352" width="24" height="24" fill="#7f1d1d"/>
<rect x="136" y="376" width="24" height="24" fill="#7f1d1d"/>
<rect x="160" y="376" width="24" height="24" fill="#7f1d1d"/>
<rect x="184" y="376" width="24" height="24" fill="#7f1d1d"/>
<rect x="208" y="376" width="24" height="24" fill="#7f1d1d"/>
<rect x="232" y="376" width="24" height="24" fill="#7f1d1d"/>
<rect x="256" y="376" width="24" height="24" fill="#7f1d1d"/>
<rect x="280" y="376" width="24" height="24" fill="#7f1d1d"/>
<rect x="304" y="376" width="24" height="24" fill="#7f1d1d"/>
<rect x="328" y="376" width="24" height="24" fill="#7f1d1d"/>
</svg>
