<svg xmlns="http://www.w3.org/2000/svg" viewBox="0 0 512 512">
<defs><linearGradient id="bg" x1="0" y1="0" x2="1" y2="1"><stop offset="0%" stop-color="#e0f2fe"/><stop offset="50%" stop-color="#fae8ff"/><stop offset="100%" stop-color="#fef3c7"/></linearGradient></defs>
<rect width="512" height="512" rx="112" fill="url(#bg)"/>
<rect x="200" y="144" width="14" height="14" fill="#7f1d1d"/>
<rect x="214" y="144" width="14" height="14" fill="#7f1d1d"/>
<rect x="284" y="144" width="14" height="14" fill="#7f1d1d"/>
<rect x="298" y="144" width="14" height="14" fill="#7f1d1d"/>
<rect x="186" y="158" width="14" height="14" fill="#7f1d1d"/>
<rect x="200" y="158" width="14" height="14" fill="#fde047"/>
<rect x="214" y="158" width="14" height="14" fill="#fde047"/>
<rect x="228" y="158" width="14" height="14" fill="#7f1d1d"/>
<rect x="270" y="158" width="14" height="14" fill="#7f1d1d"/>
<rect x="284" y="158" width="14" height="14" fill="#fde047"/>
<rect x="298" y="158" width="14" height="14" fill="#fde047"/>
<rect x="312" y="158" width="14" height="14" fill="#7f1d1d"/>
<rect x="186" y="172" width="14" height="14" fill="#7f1d1d"/>
<rect x="200" y="172" width="14" height="14" fill="#facc15"/>
<rect x="214" y="172" width="14" height="14" fill="#facc15"/>
<rect x="228" y="172" width="14" height="14" fill="#7f1d1d"/>
<rect x="270" y="172" width="14" height="14" fill="#7f1d1d"/>
<rect x="284" y="172" width="14" height="14" fill="#facc15"/>
<rect x="298" y="172" width="14" height="14" fill="#facc15"/>
<rect x="312" y="172" width="14" height="14" fill="#7f1d1d"/>
<rect x="186" y="186" width="14" height="14" fill="#7f1d1d"/>
<rect x="200" y="186" width="14" height="14" fill="#facc15"/>
<rect x="214" y="186" width="14" height="14" fill="#facc15"/>
<rect x="228" y="186" width="14" height="14" fill="#7f1d1d"/>
<rect x="242" y="186" width="14" height="14" fill="#7f1d1d"/>
<rect x="256" y="186" width="14" height="14" fill="#7f1d1d"/>
<rect x="270" y="186" width="14" height="14" fill="#7f1d1d"/>
<rect x="284" y="186" width="14" height="14" fill="#facc15"/>
<rect x="298" y="186" width="14" height="14" fill="#facc15"/>
<rect x="312" y="186" width="14" height="14" fill="#7f1d1d"/>
<rect x="172" y="200" width="14" height="14" fill="#7f1d1d"/>
<rect x="186" y="200" width="14" height="14" fill="#f87171"/>
<rect x="200" y="200" width="14" height="14" fill="#f87171"/>
<rect x="214" y="200" width="14" height="14" fill="#f87171"/>
<rect x="228" y="200" width="14" height="14" fill="#f87171"/>
<rect x="242" y="200" width="14" height="14" fill="#f87171"/>
<rect x="256" y="200" width="14" height="14" fill="#f87171"/>
<rect x="270" y="200" width="14" height="14" fill="#f87171"/>
<rect x="284" y="200" width="14" height="14" fill="#f87171"/>
<rect x="298" y="200" width="14" height="14" fill="#f87171"/>
<rect x="312" y="200" width="14" height="14" fill="#7f1d1d"/>
<rect x="158" y="214" width="14" height="14" fill="#7f1d1d"/>
<rect x="172" y="214" width="14" height="14" fill="#f87171"/>
<rect x="186" y="214" width="14" height="14" fill="#f87171"/>
<rect x="200" y="214" width="14" height="14" fill="#f87171"/>
<rect x="214" y="214" width="14" height="14" fill="#f87171"/>
<rect x="228" y="214" width="14" height="14" fill="#f87171"/>
<rect x="242" y="214" width="14" height="14" fill="#f87171"/>
<rect x="256" y="214" width="14" height="14" fill="#f87171"/>
<rect x="270" y="214" width="14" height="14" fill="#f87171"/>
<rect x="284" y="214" width="14" height="14" fill="#f87171"/>
<rect x="298" y="214" width="14" height="14" fill="#f87171"/>
<rect x="312" y="214" width="14" height="14" fill="#f87171"/>
<rect x="326" y="214" width="14" height="14" fill="#7f1d1d"/>
<rect x="158" y="228" width="14" height="14" fill="#7f1d1d"/>
<rect x="172" y="228" width="14" height="14" fill="#f87171"/>
<rect x="186" y="228" width="14" height="14" fill="#000"/>
<rect x="200" y="228" width="14" height="14" fill="#fff"/>
<rect x="214" y="228" width="14" height="14" fill="#f87171"/>
<rect x="228" y="228" width="14" height="14" fill="#f87171"/>
<rect x="242" y="228" width="14" height="14" fill="#f87171"/>
<rect x="256" y="228" width="14" height="14" fill="#f87171"/>
<rect x="270" y="228" width="14" height="14" fill="#000"/>
<rect x="284" y="228" width="14" height="14" fill="#fff"/>
<rect x="298" y="228" width="14" height="14" fill="#f87171"/>
<rect x="312" y="228" width="14" height="14" fill="#f87171"/>
<rect x="326" y="228" width="14" height="14" fill="#7f1d1d"/>
<rect x="158" y="242" width="14" height="14" fill="#7f1d1d"/>
<rect x="172" y="242" width="14" height="14" fill="#f87171"/>
<rect x="186" y="242" width="14" height="14" fill="#000"/>
<rect x="200" y="242" width="14" height="14" fill="#000"/>
<rect x="214" y="242" width="14" height="14" fill="#f87171"/>
<rect x="228" y="242" width="14" height="14" fill="#f87171"/>
<rect x="242" y="242" width="14" height="14" fill="#f87171"/>
<rect x="256" y="242" width="14" height="14" fill="#f87171"/>
<rect x="270" y="242" width="14" height="14" fill="#000"/>
<rect x="284" y="242" width="14" height="14" fill="#000"/>
<rect x="298" y="242" width="14" height="14" fill="#f87171"/>
<rect x="312" y="242" width="14" height="14" fill="#f87171"/>
<rect x="326" y="242" width="14" height="14" fill="#7f1d1d"/>
<rect x="158" y="256" width="14" height="14" fill="#7f1d1d"/>
<rect x="172" y="256" width="14" height="14" fill="#f87171"/>
<rect x="186" y="256" width="14" height="14" fill="#f87171"/>
<rect x="200" y="256" width="14" height="14" fill="#f87171"/>
<rect x="214" y="256" width="14" height="14" fill="#f87171"/>
<rect x="228" y="256" width="14" height="14" fill="#f87171"/>
<rect x="242" y="256" width="14" height="14" fill="#f87171"/>
<rect x="256" y="256" width="14" height="14" fill="#f87171"/>
<rect x="270" y="256" width="14" height="14" fill="#f87171"/>
<rect x="284" y="256" width="14" height="14" fill="#f87171"/>
<rect x="298" y="256" width="14" height="14" fill="#f87171"/>
<rect x="312" y="256" width="14" height="14" fill="#f87171"/>
<rect x="326" y="256" width="14" height="14" fill="#7f1d1d"/>
<rect x="158" y="270" width="14" height="14" fill="#7f1d1d"/>
<rect x="172" y="270" width="14" height="14" fill="#f87171"/>
<rect x="186" y="270" width="14" height="14" fill="#f87171"/>
<rect x="200" y="270" width="14" height="14" fill="#dc2626"/>
<rect x="214" y="270" width="14" height="14" fill="#dc2626"/>
<rect x="228" y="270" width="14" height="14" fill="#dc2626"/>
<rect x="242" y="270" width="14" height="14" fill="#dc2626"/>
<rect x="256" y="270" width="14" height="14" fill="#dc2626"/>
<rect x="270" y="270" width="14" height="14" fill="#dc2626"/>
<rect x="284" y="270" width="14" height="14" fill="#f87171"/>
<rect x="298" y="270" width="14" height="14" fill="#f87171"/>
<rect x="312" y="270" width="14" height="14" fill="#f87171"/>
<rect x="326" y="270" width="14" height="14" fill="#7f1d1d"/>
<rect x="158" y="284" width="14" height="14" fill="#7f1d1d"/>
<rect x="172" y="284" width="14" height="14" fill="#f87171"/>
<rect x="186" y="284" width="14" height="14" fill="#f87171"/>
<rect x="200" y="284" width="14" height="14" fill="#f87171"/>
<rect x="214" y="284" width="14" height="14" fill="#fde047"/>
<rect x="228" y="284" width="14" height="14" fill="#fde047"/>
<rect x="242" y="284" width="14" height="14" fill="#fde047"/>
<rect x="256" y="284" width="14" height="14" fill="#fde047"/>
<rect x="270" y="284" width="14" height="14" fill="#f87171"/>
<rect x="284" y="284" width="14" height="14" fill="#f87171"/>
<rect x="298" y="284" width="14" height="14" fill="#f87171"/>
<rect x="312" y="284" width="14" height="14" fill="#f87171"/>
<rect x="326" y="284" width="14" height="14" fill="#7f1d1d"/>
<rect x="158" y="298" width="14" height="14" fill="#7f1d1d"/>
<rect x="172" y="298" width="14" height="14" fill="#f87171"/>
<rect x="186" y="298" width="14" height="14" fill="#f87171"/>
<rect x="200" y="298" width="14" height="14" fill="#f87171"/>
<rect x="214" y="298" width="14" height="14" fill="#f87171"/>
<rect x="228" y="298" width="14" height="14" fill="#f87171"/>
<rect x="242" y="298" width="14" height="14" fill="#f87171"/>
<rect x="256" y="298" width="14" height="14" fill="#f87171"/>
<rect x="270" y="298" width="14" height="14" fill="#f87171"/>
<rect x="284" y="298" width="14" height="14" fill="#f87171"/>
<rect x="298" y="298" width="14" height="14" fill="#f87171"/>
<rect x="312" y="298" width="14" height="14" fill="#f87171"/>
<rect x="326" y="298" width="14" height="14" fill="#7f1d1d"/>
<rect x="172" y="312" width="14" height="14" fill="#7f1d1d"/>
<rect x="186" y="312" width="14" height="14" fill="#f87171"/>
<rect x="200" y="312" width="14" height="14" fill="#dc2626"/>
<rect x="214" y="312" width="14" height="14" fill="#dc2626"/>
<rect x="228" y="312" width="14" height="14" fill="#f87171"/>
<rect x="242" y="312" width="14" height="14" fill="#f87171"/>
<rect x="256" y="312" width="14" height="14" fill="#dc2626"/>
<rect x="270" y="312" width="14" height="14" fill="#dc2626"/>
<rect x="284" y="312" width="14" height="14" fill="#f87171"/>
<rect x="298" y="312" width="14" height="14" fill="#7f1d1d"/>
<rect x="186" y="326" width="14" height="14" fill="#7f1d1d"/>
<rect x="200" y="326" width="14" height="14" fill="#7f1d1d"/>
<rect x="214" y="326" width="14" height="14" fill="#7f1d1d"/>
<rect x="228" y="326" width="14" height="14" fill="#7f1d1d"/>
<rect x="242" y="326" width="14" height="14" fill="#7f1d1d"/>
<rect x="256" y="326" width="14" height="14" fill="#7f1d1d"/>
<rect x="270" y="326" width="14" height="14" fill="#7f1d1d"/>
<rect x="284" y="326" width="14" height="14" fill="#7f1d1d"/>
<rect x="298" y="326" width="14" height="14" fill="#7f1d1d"/>
</svg>
