<svg xmlns="http://www.w3.org/2000/svg" viewBox="0 0 512 512">
<defs><linearGradient id="bg" x1="0" y1="0" x2="1" y2="1"><stop offset="0%" stop-color="#e0f2fe"/><stop offset="50%" stop-color="#fae8ff"/><stop offset="100%" stop-color="#fef3c7"/></linearGradient></defs>
<rect width="512" height="512" rx="112" fill="url(#bg)"/>
<rect x="184" y="60" width="18" height="18" fill="#7f1d1d"/>
<rect x="202" y="60" width="18" height="18" fill="#7f1d1d"/>
<rect x="292" y="60" width="18" height="18" fill="#7f1d1d"/>
<rect x="310" y="60" width="18" height="18" fill="#7f1d1d"/>
<rect x="166" y="78" width="18" height="18" fill="#7f1d1d"/>
<rect x="184" y="78" width="18" height="18" fill="#fde047"/>
<rect x="202" y="78" width="18" height="18" fill="#fde047"/>
<rect x="220" y="78" width="18" height="18" fill="#7f1d1d"/>
<rect x="274" y="78" width="18" height="18" fill="#7f1d1d"/>
<rect x="292" y="78" width="18" height="18" fill="#fde047"/>
<rect x="310" y="78" width="18" height="18" fill="#fde047"/>
<rect x="328" y="78" width="18" height="18" fill="#7f1d1d"/>
<rect x="166" y="96" width="18" height="18" fill="#7f1d1d"/>
<rect x="184" y="96" width="18" height="18" fill="#facc15"/>
<rect x="202" y="96" width="18" height="18" fill="#facc15"/>
<rect x="220" y="96" width="18" height="18" fill="#7f1d1d"/>
<rect x="274" y="96" width="18" height="18" fill="#7f1d1d"/>
<rect x="292" y="96" width="18" height="18" fill="#facc15"/>
<rect x="310" y="96" width="18" height="18" fill="#facc15"/>
<rect x="328" y="96" width="18" height="18" fill="#7f1d1d"/>
<rect x="166" y="114" width="18" height="18" fill="#7f1d1d"/>
<rect x="184" y="114" width="18" height="18" fill="#facc15"/>
<rect x="202" y="114" width="18" height="18" fill="#facc15"/>
<rect x="220" y="114" width="18" height="18" fill="#7f1d1d"/>
<rect x="238" y="114" width="18" height="18" fill="#7f1d1d"/>
<rect x="256" y="114" width="18" height="18" fill="#7f1d1d"/>
<rect x="274" y="114" width="18" height="18" fill="#7f1d1d"/>
<rect x="292" y="114" width="18" height="18" fill="#facc15"/>
<rect x="310" y="114" width="18" height="18" fill="#facc15"/>
<rect x="328" y="114" width="18" height="18" fill="#7f1d1d"/>
<rect x="148" y="132" width="18" height="18" fill="#7f1d1d"/>
<rect x="166" y="132" width="18" height="18" fill="#f87171"/>
<rect x="184" y="132" width="18" height="18" fill="#f87171"/>
<rect x="202" y="132" width="18" height="18" fill="#f87171"/>
<rect x="220" y="132" width="18" height="18" fill="#f87171"/>
<rect x="238" y="132" width="18" height="18" fill="#f87171"/>
<rect x="256" y="132" width="18" height="18" fill="#f87171"/>
<rect x="274" y="132" width="18" height="18" fill="#f87171"/>
<rect x="292" y="132" width="18" height="18" fill="#f87171"/>
<rect x="310" y="132" width="18" height="18" fill="#f87171"/>
<rect x="328" y="132" width="18" height="18" fill="#7f1d1d"/>
<rect x="130" y="150" width="18" height="18" fill="#7f1d1d"/>
<rect x="148" y="150" width="18" height="18" fill="#f87171"/>
<rect x="166" y="150" width="18" height="18" fill="#f87171"/>
<rect x="184" y="150" width="18" height="18" fill="#f87171"/>
<rect x="202" y="150" width="18" height="18" fill="#f87171"/>
<rect x="220" y="150" width="18" height="18" fill="#f87171"/>
<rect x="238" y="150" width="18" height="18" fill="#f87171"/>
<rect x="256" y="150" width="18" height="18" fill="#f87171"/>
<rect x="274" y="150" width="18" height="18" fill="#f87171"/>
<rect x="292" y="150" width="18" height="18" fill="#f87171"/>
<rect x="310" y="150" width="18" height="18" fill="#f87171"/>
<rect x="328" y="150" width="18" height="18" fill="#f87171"/>
<rect x="346" y="150" width="18" height="18" fill="#7f1d1d"/>
<rect x="130" y="168" width="18" height="18" fill="#7f1d1d"/>
<rect x="148" y="168" width="18" height="18" fill="#f87171"/>
<rect x="166" y="168" width="18" height="18" fill="#000"/>
<rect x="184" y="168" width="18" height="18" fill="#fff"/>
<rect x="202" y="168" width="18" height="18" fill="#f87171"/>
<rect x="220" y="168" width="18" height="18" fill="#f87171"/>
<rect x="238" y="168" width="18" height="18" fill="#f87171"/>
<rect x="256" y="168" width="18" height="18" fill="#f87171"/>
<rect x="274" y="168" width="18" height="18" fill="#000"/>
<rect x="292" y="168" width="18" height="18" fill="#fff"/>
<rect x="310" y="168" width="18" height="18" fill="#f87171"/>
<rect x="328" y="168" width="18" height="18" fill="#f87171"/>
<rect x="346" y="168" width="18" height="18" fill="#7f1d1d"/>
<rect x="130" y="186" width="18" height="18" fill="#7f1d1d"/>
<rect x="148" y="186" width="18" height="18" fill="#f87171"/>
<rect x="166" y="186" width="18" height="18" fill="#000"/>
<rect x="184" y="186" width="18" height="18" fill="#000"/>
<rect x="202" y="186" width="18" height="18" fill="#f87171"/>
<rect x="220" y="186" width="18" height="18" fill="#f87171"/>
<rect x="238" y="186" width="18" height="18" fill="#f87171"/>
<rect x="256" y="186" width="18" height="18" fill="#f87171"/>
<rect x="274" y="186" width="18" height="18" fill="#000"/>
<rect x="292" y="186" width="18" height="18" fill="#000"/>
<rect x="310" y="186" width="18" height="18" fill="#f87171"/>
<rect x="328" y="186" width="18" height="18" fill="#f87171"/>
<rect x="346" y="186" width="18" height="18" fill="#7f1d1d"/>
<rect x="130" y="204" width="18" height="18" fill="#7f1d1d"/>
<rect x="148" y="204" width="18" height="18" fill="#f87171"/>
<rect x="166" y="204" width="18" height="18" fill="#f87171"/>
<rect x="184" y="204" width="18" height="18" fill="#f87171"/>
<rect x="202" y="204" width="18" height="18" fill="#f87171"/>
<rect x="220" y="204" width="18" height="18" fill="#f87171"/>
<rect x="238" y="204" width="18" height="18" fill="#f87171"/>
<rect x="256" y="204" width="18" height="18" fill="#f87171"/>
<rect x="274" y="204" width="18" height="18" fill="#f87171"/>
<rect x="292" y="204" width="18" height="18" fill="#f87171"/>
<rect x="310" y="204" width="18" height="18" fill="#f87171"/>
<rect x="328" y="204" width="18" height="18" fill="#f87171"/>
<rect x="346" y="204" width="18" height="18" fill="#7f1d1d"/>
<rect x="130" y="222" width="18" height="18" fill="#7f1d1d"/>
<rect x="148" y="222" width="18" height="18" fill="#f87171"/>
<rect x="166" y="222" width="18" height="18" fill="#f87171"/>
<rect x="184" y="222" width="18" height="18" fill="#dc2626"/>
<rect x="202" y="222" width="18" height="18" fill="#dc2626"/>
<rect x="220" y="222" width="18" height="18" fill="#dc2626"/>
<rect x="238" y="222" width="18" height="18" fill="#dc2626"/>
<rect x="256" y="222" width="18" height="18" fill="#dc2626"/>
<rect x="274" y="222" width="18" height="18" fill="#dc2626"/>
<rect x="292" y="222" width="18" height="18" fill="#f87171"/>
<rect x="310" y="222" width="18" height="18" fill="#f87171"/>
<rect x="328" y="222" width="18" height="18" fill="#f87171"/>
<rect x="346" y="222" width="18" height="18" fill="#7f1d1d"/>
<rect x="130" y="240" width="18" height="18" fill="#7f1d1d"/>
<rect x="148" y="240" width="18" height="18" fill="#f87171"/>
<rect x="166" y="240" width="18" height="18" fill="#f87171"/>
<rect x="184" y="240" width="18" height="18" fill="#f87171"/>
<rect x="202" y="240" width="18" height="18" fill="#fde047"/>
<rect x="220" y="240" width="18" height="18" fill="#fde047"/>
<rect x="238" y="240" width="18" height="18" fill="#fde047"/>
<rect x="256" y="240" width="18" height="18" fill="#fde047"/>
<rect x="274" y="240" width="18" height="18" fill="#f87171"/>
<rect x="292" y="240" width="18" height="18" fill="#f87171"/>
<rect x="310" y="240" width="18" height="18" fill="#f87171"/>
<rect x="328" y="240" width="18" height="18" fill="#f87171"/>
<rect x="346" y="240" width="18" height="18" fill="#7f1d1d"/>
<rect x="130" y="258" width="18" height="18" fill="#7f1d1d"/>
<rect x="148" y="258" width="18" height="18" fill="#f87171"/>
<rect x="166" y="258" width="18" height="18" fill="#f87171"/>
<rect x="184" y="258" width="18" height="18" fill="#f87171"/>
<rect x="202" y="258" width="18" height="18" fill="#f87171"/>
<rect x="220" y="258" width="18" height="18" fill="#f87171"/>
<rect x="238" y="258" width="18" height="18" fill="#f87171"/>
<rect x="256" y="258" width="18" height="18" fill="#f87171"/>
<rect x="274" y="258" width="18" height="18" fill="#f87171"/>
<rect x="292" y="258" width="18" height="18" fill="#f87171"/>
<rect x="310" y="258" width="18" height="18" fill="#f87171"/>
<rect x="328" y="258" width="18" height="18" fill="#f87171"/>
<rect x="346" y="258" width="18" height="18" fill="#7f1d1d"/>
<rect x="148" y="276" width="18" height="18" fill="#7f1d1d"/>
<rect x="166" y="276" width="18" height="18" fill="#f87171"/>
<rect x="184" y="276" width="18" height="18" fill="#dc2626"/>
<rect x="202" y="276" width="18" height="18" fill="#dc2626"/>
<rect x="220" y="276" width="18" height="18" fill="#f87171"/>
<rect x="238" y="276" width="18" height="18" fill="#f87171"/>
<rect x="256" y="276" width="18" height="18" fill="#dc2626"/>
<rect x="274" y="276" width="18" height="18" fill="#dc2626"/>
<rect x="292" y="276" width="18" height="18" fill="#f87171"/>
<rect x="310" y="276" width="18" height="18" fill="#7f1d1d"/>
<rect x="166" y="294" width="18" height="18" fill="#7f1d1d"/>
<rect x="184" y="294" width="18" height="18" fill="#7f1d1d"/>
<rect x="202" y="294" width="18" height="18" fill="#7f1d1d"/>
<rect x="220" y="294" width="18" height="18" fill="#7f1d1d"/>
<rect x="238" y="294" width="18" height="18" fill="#7f1d1d"/>
<rect x="256" y="294" width="18" height="18" fill="#7f1d1d"/>
<rect x="274" y="294" width="18" height="18" fill="#7f1d1d"/>
<rect x="292" y="294" width="18" height="18" fill="#7f1d1d"/>
<rect x="310" y="294" width="18" height="18" fill="#7f1d1d"/>
<text x="256" y="430" font-family="Impact, sans-serif" font-size="80" fill="#1e293b" text-anchor="middle" filter="drop-shadow(2px 2px 0px rgba(255,255,255,0.8))">To do</text></svg>
