<svg xmlns="http://www.w3.org/2000/svg" viewBox="0 0 512 512">
<defs><linearGradient id="bg" x1="0" y1="0" x2="1" y2="1"><stop offset="0%" stop-color="#e0f2fe"/><stop offset="50%" stop-color="#fae8ff"/><stop offset="100%" stop-color="#fef3c7"/></linearGradient></defs>
<rect width="512" height="512" rx="112" fill="url(#bg)"/>
<rect x="128" y="0" width="32" height="32" fill="#7f1d1d"/>
<rect x="160" y="0" width="32" height="32" fill="#7f1d1d"/>
<rect x="320" y="0" width="32" height="32" fill="#7f1d1d"/>
<rect x="352" y="0" width="32" height="32" fill="#7f1d1d"/>
<rect x="96" y="32" width="32" height="32" fill="#7f1d1d"/>
<rect x="128" y="32" width="32" height="32" fill="#fde047"/>
<rect x="160" y="32" width="32" height="32" fill="#fde047"/>
<rect x="192" y="32" width="32" height="32" fill="#7f1d1d"/>
<rect x="288" y="32" width="32" height="32" fill="#7f1d1d"/>
<rect x="320" y="32" width="32" height="32" fill="#fde047"/>
<rect x="352" y="32" width="32" height="32" fill="#fde047"/>
<rect x="384" y="32" width="32" height="32" fill="#7f1d1d"/>
<rect x="96" y="64" width="32" height="32" fill="#7f1d1d"/>
<rect x="128" y="64" width="32" height="32" fill="#facc15"/>
<rect x="160" y="64" width="32" height="32" fill="#facc15"/>
<rect x="192" y="64" width="32" height="32" fill="#7f1d1d"/>
<rect x="288" y="64" width="32" height="32" fill="#7f1d1d"/>
<rect x="320" y="64" width="32" height="32" fill="#facc15"/>
<rect x="352" y="64" width="32" height="32" fill="#facc15"/>
<rect x="384" y="64" width="32" height="32" fill="#7f1d1d"/>
<rect x="96" y="96" width="32" height="32" fill="#7f1d1d"/>
<rect x="128" y="96" width="32" height="32" fill="#facc15"/>
<rect x="160" y="96" width="32" height="32" fill="#facc15"/>
<rect x="192" y="96" width="32" height="32" fill="#7f1d1d"/>
<rect x="224" y="96" width="32" height="32" fill="#7f1d1d"/>
<rect x="256" y="96" width="32" height="32" fill="#7f1d1d"/>
<rect x="288" y="96" width="32" height="32" fill="#7f1d1d"/>
<rect x="320" y="96" width="32" height="32" fill="#facc15"/>
<rect x="352" y="96" width="32" height="32" fill="#facc15"/>
<rect x="384" y="96" width="32" height="32" fill="#7f1d1d"/>
<rect x="64" y="128" width="32" height="32" fill="#7f1d1d"/>
<rect x="96" y="128" width="32" height="32" fill="#f87171"/>
<rect x="128" y="128" width="32" height="32" fill="#f87171"/>
<rect x="160" y="128" width="32" height="32" fill="#f87171"/>
<rect x="192" y="128" width="32" height="32" fill="#f87171"/>
<rect x="224" y="128" width="32" height="32" fill="#f87171"/>
<rect x="256" y="128" width="32" height="32" fill="#f87171"/>
<rect x="288" y="128" width="32" height="32" fill="#f87171"/>
<rect x="320" y="128" width="32" height="32" fill="#f87171"/>
<rect x="352" y="128" width="32" height="32" fill="#f87171"/>
<rect x="384" y="128" width="32" height="32" fill="#7f1d1d"/>
<rect x="32" y="160" width="32" height="32" fill="#7f1d1d"/>
<rect x="64" y="160" width="32" height="32" fill="#f87171"/>
<rect x="96" y="160" width="32" height="32" fill="#f87171"/>
<rect x="128" y="160" width="32" height="32" fill="#f87171"/>
<rect x="160" y="160" width="32" height="32" fill="#f87171"/>
<rect x="192" y="160" width="32" height="32" fill="#f87171"/>
<rect x="224" y="160" width="32" height="32" fill="#f87171"/>
<rect x="256" y="160" width="32" height="32" fill="#f87171"/>
<rect x="288" y="160" width="32" height="32" fill="#f87171"/>
<rect x="320" y="160" width="32" height="32" fill="#f87171"/>
<rect x="352" y="160" width="32" height="32" fill="#f87171"/>
<rect x="384" y="160" width="32" height="32" fill="#f87171"/>
<rect x="416" y="160" width="32" height="32" fill="#7f1d1d"/>
<rect x="32" y="192" width="32" height="32" fill="#7f1d1d"/>
<rect x="64" y="192" width="32" height="32" fill="#f87171"/>
<rect x="96" y="192" width="32" height="32" fill="#000"/>
<rect x="128" y="192" width="32" height="32" fill="#fff"/>
<rect x="160" y="192" width="32" height="32" fill="#f87171"/>
<rect x="192" y="192" width="32" height="32" fill="#f87171"/>
<rect x="224" y="192" width="32" height="32" fill="#f87171"/>
<rect x="256" y="192" width="32" height="32" fill="#f87171"/>
<rect x="288" y="192" width="32" height="32" fill="#000"/>
<rect x="320" y="192" width="32" height="32" fill="#fff"/>
<rect x="352" y="192" width="32" height="32" fill="#f87171"/>
<rect x="384" y="192" width="32" height="32" fill="#f87171"/>
<rect x="416" y="192" width="32" height="32" fill="#7f1d1d"/>
<rect x="32" y="224" width="32" height="32" fill="#7f1d1d"/>
<rect x="64" y="224" width="32" height="32" fill="#f87171"/>
<rect x="96" y="224" width="32" height="32" fill="#000"/>
<rect x="128" y="224" width="32" height="32" fill="#000"/>
<rect x="160" y="224" width="32" height="32" fill="#f87171"/>
<rect x="192" y="224" width="32" height="32" fill="#f87171"/>
<rect x="224" y="224" width="32" height="32" fill="#f87171"/>
<rect x="256" y="224" width="32" height="32" fill="#f87171"/>
<rect x="288" y="224" width="32" height="32" fill="#000"/>
<rect x="320" y="224" width="32" height="32" fill="#000"/>
<rect x="352" y="224" width="32" height="32" fill="#f87171"/>
<rect x="384" y="224" width="32" height="32" fill="#f87171"/>
<rect x="416" y="224" width="32" height="32" fill="#7f1d1d"/>
<rect x="32" y="256" width="32" height="32" fill="#7f1d1d"/>
<rect x="64" y="256" width="32" height="32" fill="#f87171"/>
<rect x="96" y="256" width="32" height="32" fill="#f87171"/>
<rect x="128" y="256" width="32" height="32" fill="#f87171"/>
<rect x="160" y="256" width="32" height="32" fill="#f87171"/>
<rect x="192" y="256" width="32" height="32" fill="#f87171"/>
<rect x="224" y="256" width="32" height="32" fill="#f87171"/>
<rect x="256" y="256" width="32" height="32" fill="#f87171"/>
<rect x="288" y="256" width="32" height="32" fill="#f87171"/>
<rect x="320" y="256" width="32" height="32" fill="#f87171"/>
<rect x="352" y="256" width="32" height="32" fill="#f87171"/>
<rect x="384" y="256" width="32" height="32" fill="#f87171"/>
<rect x="416" y="256" width="32" height="32" fill="#7f1d1d"/>
<rect x="32" y="288" width="32" height="32" fill="#7f1d1d"/>
<rect x="64" y="288" width="32" height="32" fill="#f87171"/>
<rect x="96" y="288" width="32" height="32" fill="#f87171"/>
<rect x="128" y="288" width="32" height="32" fill="#dc2626"/>
<rect x="160" y="288" width="32" height="32" fill="#dc2626"/>
<rect x="192" y="288" width="32" height="32" fill="#dc2626"/>
<rect x="224" y="288" width="32" height="32" fill="#dc2626"/>
<rect x="256" y="288" width="32" height="32" fill="#dc2626"/>
<rect x="288" y="288" width="32" height="32" fill="#dc2626"/>
<rect x="320" y="288" width="32" height="32" fill="#f87171"/>
<rect x="352" y="288" width="32" height="32" fill="#f87171"/>
<rect x="384" y="288" width="32" height="32" fill="#f87171"/>
<rect x="416" y="288" width="32" height="32" fill="#7f1d1d"/>
<rect x="32" y="320" width="32" height="32" fill="#7f1d1d"/>
<rect x="64" y="320" width="32" height="32" fill="#f87171"/>
<rect x="96" y="320" width="32" height="32" fill="#f87171"/>
<rect x="128" y="320" width="32" height="32" fill="#f87171"/>
<rect x="160" y="320" width="32" height="32" fill="#fde047"/>
<rect x="192" y="320" width="32" height="32" fill="#fde047"/>
<rect x="224" y="320" width="32" height="32" fill="#fde047"/>
<rect x="256" y="320" width="32" height="32" fill="#fde047"/>
<rect x="288" y="320" width="32" height="32" fill="#f87171"/>
<rect x="320" y="320" width="32" height="32" fill="#f87171"/>
<rect x="352" y="320" width="32" height="32" fill="#f87171"/>
<rect x="384" y="320" width="32" height="32" fill="#f87171"/>
<rect x="416" y="320" width="32" height="32" fill="#7f1d1d"/>
<rect x="32" y="352" width="32" height="32" fill="#7f1d1d"/>
<rect x="64" y="352" width="32" height="32" fill="#f87171"/>
<rect x="96" y="352" width="32" height="32" fill="#f87171"/>
<rect x="128" y="352" width="32" height="32" fill="#f87171"/>
<rect x="160" y="352" width="32" height="32" fill="#f87171"/>
<rect x="192" y="352" width="32" height="32" fill="#f87171"/>
<rect x="224" y="352" width="32" height="32" fill="#f87171"/>
<rect x="256" y="352" width="32" height="32" fill="#f87171"/>
<rect x="288" y="352" width="32" height="32" fill="#f87171"/>
<rect x="320" y="352" width="32" height="32" fill="#f87171"/>
<rect x="352" y="352" width="32" height="32" fill="#f87171"/>
<rect x="384" y="352" width="32" height="32" fill="#f87171"/>
<rect x="416" y="352" width="32" height="32" fill="#7f1d1d"/>
<rect x="64" y="384" width="32" height="32" fill="#7f1d1d"/>
<rect x="96" y="384" width="32" height="32" fill="#f87171"/>
<rect x="128" y="384" width="32" height="32" fill="#dc2626"/>
<rect x="160" y="384" width="32" height="32" fill="#dc2626"/>
<rect x="192" y="384" width="32" height="32" fill="#f87171"/>
<rect x="224" y="384" width="32" height="32" fill="#f87171"/>
<rect x="256" y="384" width="32" height="32" fill="#dc2626"/>
<rect x="288" y="384" width="32" height="32" fill="#dc2626"/>
<rect x="320" y="384" width="32" height="32" fill="#f87171"/>
<rect x="352" y="384" width="32" height="32" fill="#7f1d1d"/>
<rect x="96" y="416" width="32" height="32" fill="#7f1d1d"/>
<rect x="128" y="416" width="32" height="32" fill="#7f1d1d"/>
<rect x="160" y="416" width="32" height="32" fill="#7f1d1d"/>
<rect x="192" y="416" width="32" height="32" fill="#7f1d1d"/>
<rect x="224" y="416" width="32" height="32" fill="#7f1d1d"/>
<rect x="256" y="416" width="32" height="32" fill="#7f1d1d"/>
<rect x="288" y="416" width="32" height="32" fill="#7f1d1d"/>
<rect x="320" y="416" width="32" height="32" fill="#7f1d1d"/>
<rect x="352" y="416" width="32" height="32" fill="#7f1d1d"/>
</svg>
