<svg xmlns="http://www.w3.org/2000/svg" viewBox="0 0 512 512">
<defs><linearGradient id="bg" x1="0" y1="0" x2="1" y2="1"><stop offset="0%" stop-color="#e0f2fe"/><stop offset="50%" stop-color="#fae8ff"/><stop offset="100%" stop-color="#fef3c7"/></linearGradient></defs>
<rect width="512" height="512" rx="112" fill="url(#bg)"/>
<rect x="184" y="112" width="18" height="18" fill="#7f1d1d"/>
<rect x="202" y="112" width="18" height="18" fill="#7f1d1d"/>
<rect x="292" y="112" width="18" height="18" fill="#7f1d1d"/>
<rect x="310" y="112" width="18" height="18" fill="#7f1d1d"/>
<rect x="166" y="130" width="18" height="18" fill="#7f1d1d"/>
<rect x="184" y="130" width="18" height="18" fill="#fde047"/>
<rect x="202" y="130" width="18" height="18" fill="#fde047"/>
<rect x="220" y="130" width="18" height="18" fill="#7f1d1d"/>
<rect x="274" y="130" width="18" height="18" fill="#7f1d1d"/>
<rect x="292" y="130" width="18" height="18" fill="#fde047"/>
<rect x="310" y="130" width="18" height="18" fill="#fde047"/>
<rect x="328" y="130" width="18" height="18" fill="#7f1d1d"/>
<rect x="166" y="148" width="18" height="18" fill="#7f1d1d"/>
<rect x="184" y="148" width="18" height="18" fill="#facc15"/>
<rect x="202" y="148" width="18" height="18" fill="#facc15"/>
<rect x="220" y="148" width="18" height="18" fill="#7f1d1d"/>
<rect x="274" y="148" width="18" height="18" fill="#7f1d1d"/>
<rect x="292" y="148" width="18" height="18" fill="#facc15"/>
<rect x="310" y="148" width="18" height="18" fill="#facc15"/>
<rect x="328" y="148" width="18" height="18" fill="#7f1d1d"/>
<rect x="166" y="166" width="18" height="18" fill="#7f1d1d"/>
<rect x="184" y="166" width="18" height="18" fill="#facc15"/>
<rect x="202" y="166" width="18" height="18" fill="#facc15"/>
<rect x="220" y="166" width="18" height="18" fill="#7f1d1d"/>
<rect x="238" y="166" width="18" height="18" fill="#7f1d1d"/>
<rect x="256" y="166" width="18" height="18" fill="#7f1d1d"/>
<rect x="274" y="166" width="18" height="18" fill="#7f1d1d"/>
<rect x="292" y="166" width="18" height="18" fill="#facc15"/>
<rect x="310" y="166" width="18" height="18" fill="#facc15"/>
<rect x="328" y="166" width="18" height="18" fill="#7f1d1d"/>
<rect x="148" y="184" width="18" height="18" fill="#7f1d1d"/>
<rect x="166" y="184" width="18" height="18" fill="#f87171"/>
<rect x="184" y="184" width="18" height="18" fill="#f87171"/>
<rect x="202" y="184" width="18" height="18" fill="#f87171"/>
<rect x="220" y="184" width="18" height="18" fill="#f87171"/>
<rect x="238" y="184" width="18" height="18" fill="#f87171"/>
<rect x="256" y="184" width="18" height="18" fill="#f87171"/>
<rect x="274" y="184" width="18" height="18" fill="#f87171"/>
<rect x="292" y="184" width="18" height="18" fill="#f87171"/>
<rect x="310" y="184" width="18" height="18" fill="#f87171"/>
<rect x="328" y="184" width="18" height="18" fill="#7f1d1d"/>
<rect x="130" y="202" width="18" height="18" fill="#7f1d1d"/>
<rect x="148" y="202" width="18" height="18" fill="#f87171"/>
<rect x="166" y="202" width="18" height="18" fill="#f87171"/>
<rect x="184" y="202" width="18" height="18" fill="#f87171"/>
<rect x="202" y="202" width="18" height="18" fill="#f87171"/>
<rect x="220" y="202" width="18" height="18" fill="#f87171"/>
<rect x="238" y="202" width="18" height="18" fill="#f87171"/>
<rect x="256" y="202" width="18" height="18" fill="#f87171"/>
<rect x="274" y="202" width="18" height="18" fill="#f87171"/>
<rect x="292" y="202" width="18" height="18" fill="#f87171"/>
<rect x="310" y="202" width="18" height="18" fill="#f87171"/>
<rect x="328" y="202" width="18" height="18" fill="#f87171"/>
<rect x="346" y="202" width="18" height="18" fill="#7f1d1d"/>
<rect x="130" y="220" width="18" height="18" fill="#7f1d1d"/>
<rect x="148" y="220" width="18" height="18" fill="#f87171"/>
<rect x="166" y="220" width="18" height="18" fill="#000"/>
<rect x="184" y="220" width="18" height="18" fill="#fff"/>
<rect x="202" y="220" width="18" height="18" fill="#f87171"/>
<rect x="220" y="220" width="18" height="18" fill="#f87171"/>
<rect x="238" y="220" width="18" height="18" fill="#f87171"/>
<rect x="256" y="220" width="18" height="18" fill="#f87171"/>
<rect x="274" y="220" width="18" height="18" fill="#000"/>
<rect x="292" y="220" width="18" height="18" fill="#fff"/>
<rect x="310" y="220" width="18" height="18" fill="#f87171"/>
<rect x="328" y="220" width="18" height="18" fill="#f87171"/>
<rect x="346" y="220" width="18" height="18" fill="#7f1d1d"/>
<rect x="130" y="238" width="18" height="18" fill="#7f1d1d"/>
<rect x="148" y="238" width="18" height="18" fill="#f87171"/>
<rect x="166" y="238" width="18" height="18" fill="#000"/>
<rect x="184" y="238" width="18" height="18" fill="#000"/>
<rect x="202" y="238" width="18" height="18" fill="#f87171"/>
<rect x="220" y="238" width="18" height="18" fill="#f87171"/>
<rect x="238" y="238" width="18" height="18" fill="#f87171"/>
<rect x="256" y="238" width="18" height="18" fill="#f87171"/>
<rect x="274" y="238" width="18" height="18" fill="#000"/>
<rect x="292" y="238" width="18" height="18" fill="#000"/>
<rect x="310" y="238" width="18" height="18" fill="#f87171"/>
<rect x="328" y="238" width="18" height="18" fill="#f87171"/>
<rect x="346" y="238" width="18" height="18" fill="#7f1d1d"/>
<rect x="130" y="256" width="18" height="18" fill="#7f1d1d"/>
<rect x="148" y="256" width="18" height="18" fill="#f87171"/>
<rect x="166" y="256" width="18" height="18" fill="#f87171"/>
<rect x="184" y="256" width="18" height="18" fill="#f87171"/>
<rect x="202" y="256" width="18" height="18" fill="#f87171"/>
<rect x="220" y="256" width="18" height="18" fill="#f87171"/>
<rect x="238" y="256" width="18" height="18" fill="#f87171"/>
<rect x="256" y="256" width="18" height="18" fill="#f87171"/>
<rect x="274" y="256" width="18" height="18" fill="#f87171"/>
<rect x="292" y="256" width="18" height="18" fill="#f87171"/>
<rect x="310" y="256" width="18" height="18" fill="#f87171"/>
<rect x="328" y="256" width="18" height="18" fill="#f87171"/>
<rect x="346" y="256" width="18" height="18" fill="#7f1d1d"/>
<rect x="130" y="274" width="18" height="18" fill="#7f1d1d"/>
<rect x="148" y="274" width="18" height="18" fill="#f87171"/>
<rect x="166" y="274" width="18" height="18" fill="#f87171"/>
<rect x="184" y="274" width="18" height="18" fill="#dc2626"/>
<rect x="202" y="274" width="18" height="18" fill="#dc2626"/>
<rect x="220" y="274" width="18" height="18" fill="#dc2626"/>
<rect x="238" y="274" width="18" height="18" fill="#dc2626"/>
<rect x="256" y="274" width="18" height="18" fill="#dc2626"/>
<rect x="274" y="274" width="18" height="18" fill="#dc2626"/>
<rect x="292" y="274" width="18" height="18" fill="#f87171"/>
<rect x="310" y="274" width="18" height="18" fill="#f87171"/>
<rect x="328" y="274" width="18" height="18" fill="#f87171"/>
<rect x="346" y="274" width="18" height="18" fill="#7f1d1d"/>
<rect x="130" y="292" width="18" height="18" fill="#7f1d1d"/>
<rect x="148" y="292" width="18" height="18" fill="#f87171"/>
<rect x="166" y="292" width="18" height="18" fill="#f87171"/>
<rect x="184" y="292" width="18" height="18" fill="#f87171"/>
<rect x="202" y="292" width="18" height="18" fill="#fde047"/>
<rect x="220" y="292" width="18" height="18" fill="#fde047"/>
<rect x="238" y="292" width="18" height="18" fill="#fde047"/>
<rect x="256" y="292" width="18" height="18" fill="#fde047"/>
<rect x="274" y="292" width="18" height="18" fill="#f87171"/>
<rect x="292" y="292" width="18" height="18" fill="#f87171"/>
<rect x="310" y="292" width="18" height="18" fill="#f87171"/>
<rect x="328" y="292" width="18" height="18" fill="#f87171"/>
<rect x="346" y="292" width="18" height="18" fill="#7f1d1d"/>
<rect x="130" y="310" width="18" height="18" fill="#7f1d1d"/>
<rect x="148" y="310" width="18" height="18" fill="#f87171"/>
<rect x="166" y="310" width="18" height="18" fill="#f87171"/>
<rect x="184" y="310" width="18" height="18" fill="#f87171"/>
<rect x="202" y="310" width="18" height="18" fill="#f87171"/>
<rect x="220" y="310" width="18" height="18" fill="#f87171"/>
<rect x="238" y="310" width="18" height="18" fill="#f87171"/>
<rect x="256" y="310" width="18" height="18" fill="#f87171"/>
<rect x="274" y="310" width="18" height="18" fill="#f87171"/>
<rect x="292" y="310" width="18" height="18" fill="#f87171"/>
<rect x="310" y="310" width="18" height="18" fill="#f87171"/>
<rect x="328" y="310" width="18" height="18" fill="#f87171"/>
<rect x="346" y="310" width="18" height="18" fill="#7f1d1d"/>
<rect x="148" y="328" width="18" height="18" fill="#7f1d1d"/>
<rect x="166" y="328" width="18" height="18" fill="#f87171"/>
<rect x="184" y="328" width="18" height="18" fill="#dc2626"/>
<rect x="202" y="328" width="18" height="18" fill="#dc2626"/>
<rect x="220" y="328" width="18" height="18" fill="#f87171"/>
<rect x="238" y="328" width="18" height="18" fill="#f87171"/>
<rect x="256" y="328" width="18" height="18" fill="#dc2626"/>
<rect x="274" y="328" width="18" height="18" fill="#dc2626"/>
<rect x="292" y="328" width="18" height="18" fill="#f87171"/>
<rect x="310" y="328" width="18" height="18" fill="#7f1d1d"/>
<rect x="166" y="346" width="18" height="18" fill="#7f1d1d"/>
<rect x="184" y="346" width="18" height="18" fill="#7f1d1d"/>
<rect x="202" y="346" width="18" height="18" fill="#7f1d1d"/>
<rect x="220" y="346" width="18" height="18" fill="#7f1d1d"/>
<rect x="238" y="346" width="18" height="18" fill="#7f1d1d"/>
<rect x="256" y="346" width="18" height="18" fill="#7f1d1d"/>
<rect x="274" y="346" width="18" height="18" fill="#7f1d1d"/>
<rect x="292" y="346" width="18" height="18" fill="#7f1d1d"/>
<rect x="310" y="346" width="18" height="18" fill="#7f1d1d"/>
</svg>
