<svg xmlns="http://www.w3.org/2000/svg" viewBox="0 0 512 512">
<defs>
<linearGradient id="skyGrad" x1="0%" y1="0%" x2="0%" y2="100%">
<stop offset="0%" style="stop-color:#e0f2fe;stop-opacity:1" />
<stop offset="100%" style="stop-color:#ffffff;stop-opacity:1" />
</linearGradient>
</defs>
<rect width="512" height="512" rx="112" fill="url(#skyGrad)"/>
<rect x="192" y="68" width="16" height="16" fill="#7f1d1d"/>
<rect x="208" y="68" width="16" height="16" fill="#7f1d1d"/>
<rect x="288" y="68" width="16" height="16" fill="#7f1d1d"/>
<rect x="304" y="68" width="16" height="16" fill="#7f1d1d"/>
<rect x="176" y="84" width="16" height="16" fill="#7f1d1d"/>
<rect x="192" y="84" width="16" height="16" fill="#fde047"/>
<rect x="208" y="84" width="16" height="16" fill="#fde047"/>
<rect x="224" y="84" width="16" height="16" fill="#7f1d1d"/>
<rect x="272" y="84" width="16" height="16" fill="#7f1d1d"/>
<rect x="288" y="84" width="16" height="16" fill="#fde047"/>
<rect x="304" y="84" width="16" height="16" fill="#fde047"/>
<rect x="320" y="84" width="16" height="16" fill="#7f1d1d"/>
<rect x="176" y="100" width="16" height="16" fill="#7f1d1d"/>
<rect x="192" y="100" width="16" height="16" fill="#facc15"/>
<rect x="208" y="100" width="16" height="16" fill="#facc15"/>
<rect x="224" y="100" width="16" height="16" fill="#7f1d1d"/>
<rect x="272" y="100" width="16" height="16" fill="#7f1d1d"/>
<rect x="288" y="100" width="16" height="16" fill="#facc15"/>
<rect x="304" y="100" width="16" height="16" fill="#facc15"/>
<rect x="320" y="100" width="16" height="16" fill="#7f1d1d"/>
<rect x="176" y="116" width="16" height="16" fill="#7f1d1d"/>
<rect x="192" y="116" width="16" height="16" fill="#facc15"/>
<rect x="208" y="116" width="16" height="16" fill="#facc15"/>
<rect x="224" y="116" width="16" height="16" fill="#7f1d1d"/>
<rect x="240" y="116" width="16" height="16" fill="#7f1d1d"/>
<rect x="256" y="116" width="16" height="16" fill="#7f1d1d"/>
<rect x="272" y="116" width="16" height="16" fill="#7f1d1d"/>
<rect x="288" y="116" width="16" height="16" fill="#facc15"/>
<rect x="304" y="116" width="16" height="16" fill="#facc15"/>
<rect x="320" y="116" width="16" height="16" fill="#7f1d1d"/>
<rect x="160" y="132" width="16" height="16" fill="#7f1d1d"/>
<rect x="176" y="132" width="16" height="16" fill="#f87171"/>
<rect x="192" y="132" width="16" height="16" fill="#f87171"/>
<rect x="208" y="132" width="16" height="16" fill="#f87171"/>
<rect x="224" y="132" width="16" height="16" fill="#f87171"/>
<rect x="240" y="132" width="16" height="16" fill="#f87171"/>
<rect x="256" y="132" width="16" height="16" fill="#f87171"/>
<rect x="272" y="132" width="16" height="16" fill="#f87171"/>
<rect x="288" y="132" width="16" height="16" fill="#f87171"/>
<rect x="304" y="132" width="16" height="16" fill="#f87171"/>
<rect x="320" y="132" width="16" height="16" fill="#7f1d1d"/>
<rect x="144" y="148" width="16" height="16" fill="#7f1d1d"/>
<rect x="160" y="148" width="16" height="16" fill="#f87171"/>
<rect x="176" y="148" width="16" height="16" fill="#f87171"/>
<rect x="192" y="148" width="16" height="16" fill="#f87171"/>
<rect x="208" y="148" width="16" height="16" fill="#f87171"/>
<rect x="224" y="148" width="16" height="16" fill="#f87171"/>
<rect x="240" y="148" width="16" height="16" fill="#f87171"/>
<rect x="256" y="148" width="16" height="16" fill="#f87171"/>
<rect x="272" y="148" width="16" height="16" fill="#f87171"/>
<rect x="288" y="148" width="16" height="16" fill="#f87171"/>
<rect x="304" y="148" width="16" height="16" fill="#f87171"/>
<rect x="320" y="148" width="16" height="16" fill="#f87171"/>
<rect x="336" y="148" width="16" height="16" fill="#7f1d1d"/>
<rect x="144" y="164" width="16" height="16" fill="#7f1d1d"/>
<rect x="160" y="164" width="16" height="16" fill="#f87171"/>
<rect x="176" y="164" width="16" height="16" fill="#000"/>
<rect x="192" y="164" width="16" height="16" fill="#fff"/>
<rect x="208" y="164" width="16" height="16" fill="#f87171"/>
<rect x="224" y="164" width="16" height="16" fill="#f87171"/>
<rect x="240" y="164" width="16" height="16" fill="#f87171"/>
<rect x="256" y="164" width="16" height="16" fill="#f87171"/>
<rect x="272" y="164" width="16" height="16" fill="#000"/>
<rect x="288" y="164" width="16" height="16" fill="#fff"/>
<rect x="304" y="164" width="16" height="16" fill="#f87171"/>
<rect x="320" y="164" width="16" height="16" fill="#f87171"/>
<rect x="336" y="164" width="16" height="16" fill="#7f1d1d"/>
<rect x="144" y="180" width="16" height="16" fill="#7f1d1d"/>
<rect x="160" y="180" width="16" height="16" fill="#f87171"/>
<rect x="176" y="180" width="16" height="16" fill="#000"/>
<rect x="192" y="180" width="16" height="16" fill="#000"/>
<rect x="208" y="180" width="16" height="16" fill="#f87171"/>
<rect x="224" y="180" width="16" height="16" fill="#f87171"/>
<rect x="240" y="180" width="16" height="16" fill="#f87171"/>
<rect x="256" y="180" width="16" height="16" fill="#f87171"/>
<rect x="272" y="180" width="16" height="16" fill="#000"/>
<rect x="288" y="180" width="16" height="16" fill="#000"/>
<rect x="304" y="180" width="16" height="16" fill="#f87171"/>
<rect x="320" y="180" width="16" height="16" fill="#f87171"/>
<rect x="336" y="180" width="16" height="16" fill="#7f1d1d"/>
<rect x="144" y="196" width="16" height="16" fill="#7f1d1d"/>
<rect x="160" y="196" width="16" height="16" fill="#f87171"/>
<rect x="176" y="196" width="16" height="16" fill="#f87171"/>
<rect x="192" y="196" width="16" height="16" fill="#f87171"/>
<rect x="208" y="196" width="16" height="16" fill="#f87171"/>
<rect x="224" y="196" width="16" height="16" fill="#f87171"/>
<rect x="240" y="196" width="16" height="16" fill="#f87171"/>
<rect x="256" y="196" width="16" height="16" fill="#f87171"/>
<rect x="272" y="196" width="16" height="16" fill="#f87171"/>
<rect x="288" y="196" width="16" height="16" fill="#f87171"/>
<rect x="304" y="196" width="16" height="16" fill="#f87171"/>
<rect x="320" y="196" width="16" height="16" fill="#f87171"/>
<rect x="336" y="196" width="16" height="16" fill="#7f1d1d"/>
<rect x="144" y="212" width="16" height="16" fill="#7f1d1d"/>
<rect x="160" y="212" width="16" height="16" fill="#f87171"/>
<rect x="176" y="212" width="16" height="16" fill="#f87171"/>
<rect x="192" y="212" width="16" height="16" fill="#dc2626"/>
<rect x="208" y="212" width="16" height="16" fill="#dc2626"/>
<rect x="224" y="212" width="16" height="16" fill="#dc2626"/>
<rect x="240" y="212" width="16" height="16" fill="#dc2626"/>
<rect x="256" y="212" width="16" height="16" fill="#dc2626"/>
<rect x="272" y="212" width="16" height="16" fill="#dc2626"/>
<rect x="288" y="212" width="16" height="16" fill="#f87171"/>
<rect x="304" y="212" width="16" height="16" fill="#f87171"/>
<rect x="320" y="212" width="16" height="16" fill="#f87171"/>
<rect x="336" y="212" width="16" height="16" fill="#7f1d1d"/>
<rect x="144" y="228" width="16" height="16" fill="#7f1d1d"/>
<rect x="160" y="228" width="16" height="16" fill="#f87171"/>
<rect x="176" y="228" width="16" height="16" fill="#f87171"/>
<rect x="192" y="228" width="16" height="16" fill="#f87171"/>
<rect x="208" y="228" width="16" height="16" fill="#fde047"/>
<rect x="224" y="228" width="16" height="16" fill="#fde047"/>
<rect x="240" y="228" width="16" height="16" fill="#fde047"/>
<rect x="256" y="228" width="16" height="16" fill="#fde047"/>
<rect x="272" y="228" width="16" height="16" fill="#f87171"/>
<rect x="288" y="228" width="16" height="16" fill="#f87171"/>
<rect x="304" y="228" width="16" height="16" fill="#f87171"/>
<rect x="320" y="228" width="16" height="16" fill="#f87171"/>
<rect x="336" y="228" width="16" height="16" fill="#7f1d1d"/>
<rect x="144" y="244" width="16" height="16" fill="#7f1d1d"/>
<rect x="160" y="244" width="16" height="16" fill="#f87171"/>
<rect x="176" y="244" width="16" height="16" fill="#f87171"/>
<rect x="192" y="244" width="16" height="16" fill="#f87171"/>
<rect x="208" y="244" width="16" height="16" fill="#f87171"/>
<rect x="224" y="244" width="16" height="16" fill="#f87171"/>
<rect x="240" y="244" width="16" height="16" fill="#f87171"/>
<rect x="256" y="244" width="16" height="16" fill="#f87171"/>
<rect x="272" y="244" width="16" height="16" fill="#f87171"/>
<rect x="288" y="244" width="16" height="16" fill="#f87171"/>
<rect x="304" y="244" width="16" height="16" fill="#f87171"/>
<rect x="320" y="244" width="16" height="16" fill="#f87171"/>
<rect x="336" y="244" width="16" height="16" fill="#7f1d1d"/>
<rect x="160" y="260" width="16" height="16" fill="#7f1d1d"/>
<rect x="176" y="260" width="16" height="16" fill="#f87171"/>
<rect x="192" y="260" width="16" height="16" fill="#dc2626"/>
<rect x="208" y="260" width="16" height="16" fill="#dc2626"/>
<rect x="224" y="260" width="16" height="16" fill="#f87171"/>
<rect x="240" y="260" width="16" height="16" fill="#f87171"/>
<rect x="256" y="260" width="16" height="16" fill="#dc2626"/>
<rect x="272" y="260" width="16" height="16" fill="#dc2626"/>
<rect x="288" y="260" width="16" height="16" fill="#f87171"/>
<rect x="304" y="260" width="16" height="16" fill="#7f1d1d"/>
<rect x="176" y="276" width="16" height="16" fill="#7f1d1d"/>
<rect x="192" y="276" width="16" height="16" fill="#7f1d1d"/>
<rect x="208" y="276" width="16" height="16" fill="#7f1d1d"/>
<rect x="224" y="276" width="16" height="16" fill="#7f1d1d"/>
<rect x="240" y="276" width="16" height="16" fill="#7f1d1d"/>
<rect x="256" y="276" width="16" height="16" fill="#7f1d1d"/>
<rect x="272" y="276" width="16" height="16" fill="#7f1d1d"/>
<rect x="288" y="276" width="16" height="16" fill="#7f1d1d"/>
<rect x="304" y="276" width="16" height="16" fill="#7f1d1d"/>
<text x="256" y="440" font-family="Impact, sans-serif" font-size="120" fill="#1e293b" text-anchor="middle" font-weight="bold">To do</text>
</svg>
