<svg xmlns="http://www.w3.org/2000/svg" viewBox="0 0 512 512">
<rect width="512" height="512" rx="112" fill="#e0f2fe"/>
<rect x="176" y="40" width="20" height="20" fill="#7f1d1d"/>
<rect x="196" y="40" width="20" height="20" fill="#7f1d1d"/>
<rect x="296" y="40" width="20" height="20" fill="#7f1d1d"/>
<rect x="316" y="40" width="20" height="20" fill="#7f1d1d"/>
<rect x="156" y="60" width="20" height="20" fill="#7f1d1d"/>
<rect x="176" y="60" width="20" height="20" fill="#fde047"/>
<rect x="196" y="60" width="20" height="20" fill="#fde047"/>
<rect x="216" y="60" width="20" height="20" fill="#7f1d1d"/>
<rect x="276" y="60" width="20" height="20" fill="#7f1d1d"/>
<rect x="296" y="60" width="20" height="20" fill="#fde047"/>
<rect x="316" y="60" width="20" height="20" fill="#fde047"/>
<rect x="336" y="60" width="20" height="20" fill="#7f1d1d"/>
<rect x="156" y="80" width="20" height="20" fill="#7f1d1d"/>
<rect x="176" y="80" width="20" height="20" fill="#facc15"/>
<rect x="196" y="80" width="20" height="20" fill="#facc15"/>
<rect x="216" y="80" width="20" height="20" fill="#7f1d1d"/>
<rect x="276" y="80" width="20" height="20" fill="#7f1d1d"/>
<rect x="296" y="80" width="20" height="20" fill="#facc15"/>
<rect x="316" y="80" width="20" height="20" fill="#facc15"/>
<rect x="336" y="80" width="20" height="20" fill="#7f1d1d"/>
<rect x="156" y="100" width="20" height="20" fill="#7f1d1d"/>
<rect x="176" y="100" width="20" height="20" fill="#facc15"/>
<rect x="196" y="100" width="20" height="20" fill="#facc15"/>
<rect x="216" y="100" width="20" height="20" fill="#7f1d1d"/>
<rect x="236" y="100" width="20" height="20" fill="#7f1d1d"/>
<rect x="256" y="100" width="20" height="20" fill="#7f1d1d"/>
<rect x="276" y="100" width="20" height="20" fill="#7f1d1d"/>
<rect x="296" y="100" width="20" height="20" fill="#facc15"/>
<rect x="316" y="100" width="20" height="20" fill="#facc15"/>
<rect x="336" y="100" width="20" height="20" fill="#7f1d1d"/>
<rect x="136" y="120" width="20" height="20" fill="#7f1d1d"/>
<rect x="156" y="120" width="20" height="20" fill="#f87171"/>
<rect x="176" y="120" width="20" height="20" fill="#f87171"/>
<rect x="196" y="120" width="20" height="20" fill="#f87171"/>
<rect x="216" y="120" width="20" height="20" fill="#f87171"/>
<rect x="236" y="120" width="20" height="20" fill="#f87171"/>
<rect x="256" y="120" width="20" height="20" fill="#f87171"/>
<rect x="276" y="120" width="20" height="20" fill="#f87171"/>
<rect x="296" y="120" width="20" height="20" fill="#f87171"/>
<rect x="316" y="120" width="20" height="20" fill="#f87171"/>
<rect x="336" y="120" width="20" height="20" fill="#7f1d1d"/>
<rect x="116" y="140" width="20" height="20" fill="#7f1d1d"/>
<rect x="136" y="140" width="20" height="20" fill="#f87171"/>
<rect x="156" y="140" width="20" height="20" fill="#f87171"/>
<rect x="176" y="140" width="20" height="20" fill="#f87171"/>
<rect x="196" y="140" width="20" height="20" fill="#f87171"/>
<rect x="216" y="140" width="20" height="20" fill="#f87171"/>
<rect x="236" y="140" width="20" height="20" fill="#f87171"/>
<rect x="256" y="140" width="20" height="20" fill="#f87171"/>
<rect x="276" y="140" width="20" height="20" fill="#f87171"/>
<rect x="296" y="140" width="20" height="20" fill="#f87171"/>
<rect x="316" y="140" width="20" height="20" fill="#f87171"/>
<rect x="336" y="140" width="20" height="20" fill="#f87171"/>
<rect x="356" y="140" width="20" height="20" fill="#7f1d1d"/>
<rect x="116" y="160" width="20" height="20" fill="#7f1d1d"/>
<rect x="136" y="160" width="20" height="20" fill="#f87171"/>
<rect x="156" y="160" width="20" height="20" fill="#000"/>
<rect x="176" y="160" width="20" height="20" fill="#fff"/>
<rect x="196" y="160" width="20" height="20" fill="#f87171"/>
<rect x="216" y="160" width="20" height="20" fill="#f87171"/>
<rect x="236" y="160" width="20" height="20" fill="#f87171"/>
<rect x="256" y="160" width="20" height="20" fill="#f87171"/>
<rect x="276" y="160" width="20" height="20" fill="#000"/>
<rect x="296" y="160" width="20" height="20" fill="#fff"/>
<rect x="316" y="160" width="20" height="20" fill="#f87171"/>
<rect x="336" y="160" width="20" height="20" fill="#f87171"/>
<rect x="356" y="160" width="20" height="20" fill="#7f1d1d"/>
<rect x="116" y="180" width="20" height="20" fill="#7f1d1d"/>
<rect x="136" y="180" width="20" height="20" fill="#f87171"/>
<rect x="156" y="180" width="20" height="20" fill="#000"/>
<rect x="176" y="180" width="20" height="20" fill="#000"/>
<rect x="196" y="180" width="20" height="20" fill="#f87171"/>
<rect x="216" y="180" width="20" height="20" fill="#f87171"/>
<rect x="236" y="180" width="20" height="20" fill="#f87171"/>
<rect x="256" y="180" width="20" height="20" fill="#f87171"/>
<rect x="276" y="180" width="20" height="20" fill="#000"/>
<rect x="296" y="180" width="20" height="20" fill="#000"/>
<rect x="316" y="180" width="20" height="20" fill="#f87171"/>
<rect x="336" y="180" width="20" height="20" fill="#f87171"/>
<rect x="356" y="180" width="20" height="20" fill="#7f1d1d"/>
<rect x="116" y="200" width="20" height="20" fill="#7f1d1d"/>
<rect x="136" y="200" width="20" height="20" fill="#f87171"/>
<rect x="156" y="200" width="20" height="20" fill="#f87171"/>
<rect x="176" y="200" width="20" height="20" fill="#f87171"/>
<rect x="196" y="200" width="20" height="20" fill="#f87171"/>
<rect x="216" y="200" width="20" height="20" fill="#f87171"/>
<rect x="236" y="200" width="20" height="20" fill="#f87171"/>
<rect x="256" y="200" width="20" height="20" fill="#f87171"/>
<rect x="276" y="200" width="20" height="20" fill="#f87171"/>
<rect x="296" y="200" width="20" height="20" fill="#f87171"/>
<rect x="316" y="200" width="20" height="20" fill="#f87171"/>
<rect x="336" y="200" width="20" height="20" fill="#f87171"/>
<rect x="356" y="200" width="20" height="20" fill="#7f1d1d"/>
<rect x="116" y="220" width="20" height="20" fill="#7f1d1d"/>
<rect x="136" y="220" width="20" height="20" fill="#f87171"/>
<rect x="156" y="220" width="20" height="20" fill="#f87171"/>
<rect x="176" y="220" width="20" height="20" fill="#dc2626"/>
<rect x="196" y="220" width="20" height="20" fill="#dc2626"/>
<rect x="216" y="220" width="20" height="20" fill="#dc2626"/>
<rect x="236" y="220" width="20" height="20" fill="#dc2626"/>
<rect x="256" y="220" width="20" height="20" fill="#dc2626"/>
<rect x="276" y="220" width="20" height="20" fill="#dc2626"/>
<rect x="296" y="220" width="20" height="20" fill="#f87171"/>
<rect x="316" y="220" width="20" height="20" fill="#f87171"/>
<rect x="336" y="220" width="20" height="20" fill="#f87171"/>
<rect x="356" y="220" width="20" height="20" fill="#7f1d1d"/>
<rect x="116" y="240" width="20" height="20" fill="#7f1d1d"/>
<rect x="136" y="240" width="20" height="20" fill="#f87171"/>
<rect x="156" y="240" width="20" height="20" fill="#f87171"/>
<rect x="176" y="240" width="20" height="20" fill="#f87171"/>
<rect x="196" y="240" width="20" height="20" fill="#fde047"/>
<rect x="216" y="240" width="20" height="20" fill="#fde047"/>
<rect x="236" y="240" width="20" height="20" fill="#fde047"/>
<rect x="256" y="240" width="20" height="20" fill="#fde047"/>
<rect x="276" y="240" width="20" height="20" fill="#f87171"/>
<rect x="296" y="240" width="20" height="20" fill="#f87171"/>
<rect x="316" y="240" width="20" height="20" fill="#f87171"/>
<rect x="336" y="240" width="20" height="20" fill="#f87171"/>
<rect x="356" y="240" width="20" height="20" fill="#7f1d1d"/>
<rect x="116" y="260" width="20" height="20" fill="#7f1d1d"/>
<rect x="136" y="260" width="20" height="20" fill="#f87171"/>
<rect x="156" y="260" width="20" height="20" fill="#f87171"/>
<rect x="176" y="260" width="20" height="20" fill="#f87171"/>
<rect x="196" y="260" width="20" height="20" fill="#f87171"/>
<rect x="216" y="260" width="20" height="20" fill="#f87171"/>
<rect x="236" y="260" width="20" height="20" fill="#f87171"/>
<rect x="256" y="260" width="20" height="20" fill="#f87171"/>
<rect x="276" y="260" width="20" height="20" fill="#f87171"/>
<rect x="296" y="260" width="20" height="20" fill="#f87171"/>
<rect x="316" y="260" width="20" height="20" fill="#f87171"/>
<rect x="336" y="260" width="20" height="20" fill="#f87171"/>
<rect x="356" y="260" width="20" height="20" fill="#7f1d1d"/>
<rect x="136" y="280" width="20" height="20" fill="#7f1d1d"/>
<rect x="156" y="280" width="20" height="20" fill="#f87171"/>
<rect x="176" y="280" width="20" height="20" fill="#dc2626"/>
<rect x="196" y="280" width="20" height="20" fill="#dc2626"/>
<rect x="216" y="280" width="20" height="20" fill="#f87171"/>
<rect x="236" y="280" width="20" height="20" fill="#f87171"/>
<rect x="256" y="280" width="20" height="20" fill="#dc2626"/>
<rect x="276" y="280" width="20" height="20" fill="#dc2626"/>
<rect x="296" y="280" width="20" height="20" fill="#f87171"/>
<rect x="316" y="280" width="20" height="20" fill="#7f1d1d"/>
<rect x="156" y="300" width="20" height="20" fill="#7f1d1d"/>
<rect x="176" y="300" width="20" height="20" fill="#7f1d1d"/>
<rect x="196" y="300" width="20" height="20" fill="#7f1d1d"/>
<rect x="216" y="300" width="20" height="20" fill="#7f1d1d"/>
<rect x="236" y="300" width="20" height="20" fill="#7f1d1d"/>
<rect x="256" y="300" width="20" height="20" fill="#7f1d1d"/>
<rect x="276" y="300" width="20" height="20" fill="#7f1d1d"/>
<rect x="296" y="300" width="20" height="20" fill="#7f1d1d"/>
<rect x="316" y="300" width="20" height="20" fill="#7f1d1d"/>
<text x="256" y="435" font-family="Impact, sans-serif" font-size="100" fill="#1e293b" text-anchor="middle" font-weight="bold">TODO</text></svg>
